<?xml version="1.0" encoding="UTF-8"?>
<svg xmlns="http://www.w3.org/2000/svg" width="960" height="700" viewBox="0 0 960 700">
  <defs>
  </defs>
  <g id="container-shells">
  </g>
  <g id="node-shadows">
    <rect x="440" y="320" width="120" height="60" rx="6" ry="6" fill="#000000" stroke="#000000" stroke-width="2" opacity="0.25" transform="translate(2,3)"/>
    <rect x="440" y="220" width="120" height="60" rx="6" ry="6" fill="#000000" stroke="#000000" stroke-width="2" opacity="0.25" transform="translate(2,3)"/>
    <rect x="260" y="320" width="120" height="60" rx="6" ry="6" fill="#000000" stroke="#000000" stroke-width="2" opacity="0.25" transform="translate(2,3)"/>
    <rect x="660" y="40" width="40" height="40" rx="4" ry="4" fill="#000000" stroke="#000000" stroke-width="2" opacity="0.25" transform="translate(2,3)"/>
    <rect x="660" y="620" width="40" height="40" rx="4" ry="4" fill="#000000" stroke="#000000" stroke-width="2" opacity="0.25" transform="translate(2,3)"/>
    <rect x="440" y="420" width="120" height="60" rx="6" ry="6" fill="#000000" stroke="#000000" stroke-width="2" opacity="0.25" transform="translate(2,3)"/>
    <rect x="440" y="120" width="120" height="60" rx="6" ry="6" fill="#000000" stroke="#000000" stroke-width="2" opacity="0.25" transform="translate(2,3)"/>
    <rect x="620" y="320" width="120" height="60" rx="6" ry="6" fill="#000000" stroke="#000000" stroke-width="2" opacity="0.25" transform="translate(2,3)"/>
    <rect x="440" y="520" width="120" height="60" rx="6" ry="6" fill="#000000" stroke="#000000" stroke-width="2" opacity="0.25" transform="translate(2,3)"/>
    <rect x="800" y="320" width="120" height="60" rx="6" ry="6" fill="#000000" stroke="#000000" stroke-width="2" opacity="0.25" transform="translate(2,3)"/>
    <rect x="220" y="520" width="120" height="60" rx="6" ry="6" fill="#000000" stroke="#000000" stroke-width="2" opacity="0.25" transform="translate(2,3)"/>
    <rect x="40" y="320" width="120" height="60" rx="6" ry="6" fill="#000000" stroke="#000000" stroke-width="2" opacity="0.25" transform="translate(2,3)"/>
    <rect x="260" y="220" width="120" height="60" rx="6" ry="6" fill="#000000" stroke="#000000" stroke-width="2" opacity="0.25" transform="translate(2,3)"/>
  </g>
  <g id="edges">
    <g class="edge" data-edge-idx="0" data-edge-base="partof" data-edge-from="1" data-edge-to="2">
    <line x1="500.00" y1="385.00" x2="500.00" y2="408.25" stroke="#82b366" stroke-width="3" />
    <path d="M 500.00 415.00 L 495.50 406.00 L 500.00 408.25 L 504.50 406.00 Z" fill="#82b366" stroke="#82b366" stroke-width="3" stroke-miterlimit="10"/>
    </g>
    <g class="edge" data-edge-idx="1" data-edge-base="partof" data-edge-from="3" data-edge-to="4">
    <line x1="564.82" y1="165.26" x2="613.15" y2="318.31" stroke="#82b366" stroke-width="3" />
    <path d="M 615.18 324.74 L 608.18 317.52 L 613.15 318.31 L 616.76 314.81 Z" fill="#82b366" stroke="#82b366" stroke-width="3" stroke-miterlimit="10"/>
    </g>
    <g class="edge" data-edge-idx="2" data-edge-base="partof" data-edge-from="1" data-edge-to="4">
    <line x1="565.00" y1="350.00" x2="608.25" y2="350.00" stroke="#82b366" stroke-width="3" />
    <path d="M 615.00 350.00 L 606.00 354.50 L 608.25 350.00 L 606.00 345.50 Z" fill="#82b366" stroke="#82b366" stroke-width="3" stroke-miterlimit="10"/>
    </g>
    <g class="edge" data-edge-idx="3" data-edge-base="partof" data-edge-from="5" data-edge-to="4">
    <line x1="564.82" y1="534.74" x2="613.15" y2="381.69" stroke="#82b366" stroke-width="3" />
    <path d="M 615.18 375.26 L 616.76 385.19 L 613.15 381.69 L 608.18 382.48 Z" fill="#82b366" stroke="#82b366" stroke-width="3" stroke-miterlimit="10"/>
    </g>
    <g class="edge" data-edge-idx="4" data-edge-base="expresses" data-edge-from="4" data-edge-to="6">
    <line x1="745.00" y1="350.00" x2="788.25" y2="350.00" stroke="#6c8ebf" stroke-width="3" stroke-dasharray="9 6" />
    <path d="M 795.00 350.00 L 786.00 354.50 L 788.25 350.00 L 786.00 345.50 Z" fill="#6c8ebf" stroke="#6c8ebf" stroke-width="3" stroke-miterlimit="10"/>
    </g>
    <g class="edge" data-edge-idx="5" data-edge-base="nearto" data-edge-from="5" data-edge-to="7">
    <line x1="435.00" y1="550.00" x2="345.00" y2="550.00" stroke="#999999" stroke-width="3" stroke-linecap="round" stroke-dasharray="0 6.000" />
    </g>
    <g class="edge" data-edge-idx="6" data-edge-base="nearto" data-edge-from="8" data-edge-to="1">
    <polyline points="135.00,385.00 150,400 450,400 465.00,385.00" fill="none" stroke="#999999" stroke-width="3" stroke-linecap="round" stroke-dasharray="0 6.007" />
    </g>
    <g class="edge" data-edge-idx="7" data-edge-base="partof" data-edge-from="9" data-edge-to="1">
    <line x1="358.18" y1="285.00" x2="429.24" y2="328.42" stroke="#82b366" stroke-width="3" />
    <path d="M 435.00 331.94 L 424.97 331.09 L 429.24 328.42 L 429.67 323.41 Z" fill="#82b366" stroke="#82b366" stroke-width="3" stroke-miterlimit="10"/>
    </g>
    <g class="edge" data-edge-idx="8" data-edge-base="partof" data-edge-from="10" data-edge-to="1">
    <line x1="500.00" y1="285.00" x2="500.00" y2="308.25" stroke="#82b366" stroke-width="3" />
    <path d="M 500.00 315.00 L 495.50 306.00 L 500.00 308.25 L 504.50 306.00 Z" fill="#82b366" stroke="#82b366" stroke-width="3" stroke-miterlimit="10"/>
    </g>
    <g class="edge" data-edge-idx="9" data-edge-base="expresses" data-edge-from="9" data-edge-to="11">
    <line x1="320.00" y1="285.00" x2="320.00" y2="308.25" stroke="#6c8ebf" stroke-width="3" stroke-dasharray="9 6" />
    <path d="M 320.00 315.00 L 315.50 306.00 L 320.00 308.25 L 324.50 306.00 Z" fill="#6c8ebf" stroke="#6c8ebf" stroke-width="3" stroke-miterlimit="10"/>
    </g>
    <g class="edge" data-edge-idx="10" data-edge-base="leadsto" data-edge-from="12" data-edge-to="4">
    <line x1="680.00" y1="85.00" x2="680.00" y2="308.25" stroke="#ff8000" stroke-width="3" />
    <path d="M 680.00 315.00 L 675.50 306.00 L 680.00 308.25 L 684.50 306.00 Z" fill="#ff8000" stroke="#ff8000" stroke-width="3" stroke-miterlimit="10"/>
    </g>
    <g class="edge" data-edge-idx="11" data-edge-base="leadsto" data-edge-from="4" data-edge-to="13">
    <line x1="680.00" y1="385.00" x2="680.00" y2="608.25" stroke="#ff8000" stroke-width="3" />
    <path d="M 680.00 615.00 L 675.50 606.00 L 680.00 608.25 L 684.50 606.00 Z" fill="#ff8000" stroke="#ff8000" stroke-width="3" stroke-miterlimit="10"/>
    </g>
  </g>
  <g id="nodes">
    <rect x="440" y="320" width="120" height="60" rx="6" ry="6" fill="#d5e8d4" stroke="#82b366" stroke-width="2"/>
    <text x="500" y="350" text-anchor="middle" dominant-baseline="middle" font-family="Helvetica,Inter,Segoe UI,Arial" font-size="16" font-weight="normal" fill="#009900">tA</text>
    <rect x="440" y="220" width="120" height="60" rx="6" ry="6" fill="#d5e8d4" stroke="#82b366" stroke-width="2"/>
    <text x="500" y="250" text-anchor="middle" dominant-baseline="middle" font-family="Helvetica,Inter,Segoe UI,Arial" font-size="16" font-weight="normal" fill="#009900">tH</text>
    <rect x="260" y="320" width="120" height="60" rx="6" ry="6" fill="#dae8fc" stroke="#6c8ebf" stroke-width="2"/>
    <text x="320" y="350" text-anchor="middle" dominant-baseline="middle" font-family="Helvetica,Inter,Segoe UI,Arial" font-size="16" font-weight="normal" fill="#3399ff">cY</text>
    <rect x="660" y="40" width="40" height="40" rx="4" ry="4" fill="#ffe6cc" stroke="#ff8000" stroke-width="2"/>
    <text x="680" y="60" text-anchor="middle" dominant-baseline="middle" font-family="Helvetica,Inter,Segoe UI,Arial" font-size="16" font-weight="bold" fill="#ff8000">S</text>
    <rect x="660" y="620" width="40" height="40" rx="4" ry="4" fill="#ffe6cc" stroke="#ff8000" stroke-width="2"/>
    <text x="680" y="640" text-anchor="middle" dominant-baseline="middle" font-family="Helvetica,Inter,Segoe UI,Arial" font-size="16" font-weight="bold" fill="#ff8000">E</text>
    <rect x="440" y="420" width="120" height="60" rx="6" ry="6" fill="#d5e8d4" stroke="#82b366" stroke-width="2"/>
    <text x="500" y="450" text-anchor="middle" dominant-baseline="middle" font-family="Helvetica,Inter,Segoe UI,Arial" font-size="16" font-weight="normal" fill="#009900">tB</text>
    <rect x="440" y="120" width="120" height="60" rx="6" ry="6" fill="#d5e8d4" stroke="#82b366" stroke-width="2"/>
    <text x="500" y="150" text-anchor="middle" dominant-baseline="middle" font-family="Helvetica,Inter,Segoe UI,Arial" font-size="16" font-weight="normal" fill="#009900">tC</text>
    <rect x="620" y="320" width="120" height="60" rx="6" ry="6" fill="#ffe6cc" stroke="#ff8000" stroke-width="2"/>
    <text x="680" y="350" text-anchor="middle" dominant-baseline="middle" font-family="Helvetica,Inter,Segoe UI,Arial" font-size="16" font-weight="bold" fill="#ff8000">e1</text>
    <rect x="440" y="520" width="120" height="60" rx="6" ry="6" fill="#d5e8d4" stroke="#82b366" stroke-width="2"/>
    <text x="500" y="550" text-anchor="middle" dominant-baseline="middle" font-family="Helvetica,Inter,Segoe UI,Arial" font-size="16" font-weight="normal" fill="#009900">tD</text>
    <rect x="800" y="320" width="120" height="60" rx="6" ry="6" fill="#dae8fc" stroke="#6c8ebf" stroke-width="2"/>
    <text x="860" y="350" text-anchor="middle" dominant-baseline="middle" font-family="Helvetica,Inter,Segoe UI,Arial" font-size="16" font-weight="normal" fill="#3399ff">cX</text>
    <rect x="220" y="520" width="120" height="60" rx="6" ry="6" fill="#d5e8d4" stroke="#82b366" stroke-width="2"/>
    <text x="280" y="550" text-anchor="middle" dominant-baseline="middle" font-family="Helvetica,Inter,Segoe UI,Arial" font-size="16" font-weight="normal" fill="#009900">tE</text>
    <rect x="40" y="320" width="120" height="60" rx="6" ry="6" fill="#d5e8d4" stroke="#82b366" stroke-width="2"/>
    <text x="100" y="350" text-anchor="middle" dominant-baseline="middle" font-family="Helvetica,Inter,Segoe UI,Arial" font-size="16" font-weight="normal" fill="#009900">tF</text>
    <rect x="260" y="220" width="120" height="60" rx="6" ry="6" fill="#d5e8d4" stroke="#82b366" stroke-width="2"/>
    <text x="320" y="250" text-anchor="middle" dominant-baseline="middle" font-family="Helvetica,Inter,Segoe UI,Arial" font-size="16" font-weight="normal" fill="#009900">tG</text>
  </g>
</svg>
