<?xml version="1.0" encoding="UTF-8"?>
<svg xmlns="http://www.w3.org/2000/svg" width="420" height="540" viewBox="0 0 420 540">
  <defs>
  </defs>
  <g id="container-shells">
  </g>
  <g id="node-shadows">
    <rect x="220" y="120" width="120" height="60" rx="6" ry="6" fill="#000000" stroke="#000000" stroke-width="2" opacity="0.25" transform="translate(2,3)"/>
    <rect x="220" y="240" width="120" height="60" rx="6" ry="6" fill="#000000" stroke="#000000" stroke-width="2" opacity="0.25" transform="translate(2,3)"/>
    <rect x="220" y="360" width="120" height="60" rx="6" ry="6" fill="#000000" stroke="#000000" stroke-width="2" opacity="0.25" transform="translate(2,3)"/>
    <rect x="40" y="240" width="120" height="60" rx="6" ry="6" fill="#000000" stroke="#000000" stroke-width="2" opacity="0.25" transform="translate(2,3)"/>
    <rect x="80" y="40" width="40" height="40" rx="4" ry="4" fill="#000000" stroke="#000000" stroke-width="2" opacity="0.25" transform="translate(2,3)"/>
    <rect x="80" y="460" width="40" height="40" rx="4" ry="4" fill="#000000" stroke="#000000" stroke-width="2" opacity="0.25" transform="translate(2,3)"/>
  </g>
  <g id="edges">
    <g class="edge" data-edge-idx="0" data-edge-base="partof" data-edge-from="1" data-edge-to="4">
    <line x1="215.00" y1="159.17" x2="168.23" y2="244.91" stroke="#82b366" stroke-width="3" />
    <path d="M 165.00 250.83 L 165.36 240.78 L 168.23 244.91 L 173.26 245.09 Z" fill="#82b366" stroke="#82b366" stroke-width="3" stroke-miterlimit="10"/>
    </g>
    <g class="edge" data-edge-idx="1" data-edge-base="partof" data-edge-from="2" data-edge-to="4">
    <line x1="215.00" y1="270.00" x2="171.75" y2="270.00" stroke="#82b366" stroke-width="3" />
    <path d="M 165.00 270.00 L 174.00 265.50 L 171.75 270.00 L 174.00 274.50 Z" fill="#82b366" stroke="#82b366" stroke-width="3" stroke-miterlimit="10"/>
    </g>
    <g class="edge" data-edge-idx="2" data-edge-base="partof" data-edge-from="3" data-edge-to="4">
    <line x1="215.00" y1="380.83" x2="168.23" y2="295.09" stroke="#82b366" stroke-width="3" />
    <path d="M 165.00 289.17 L 173.26 294.91 L 168.23 295.09 L 165.36 299.22 Z" fill="#82b366" stroke="#82b366" stroke-width="3" stroke-miterlimit="10"/>
    </g>
    <g class="edge" data-edge-idx="3" data-edge-base="nearto" data-edge-from="1" data-edge-to="2">
    <line x1="280.00" y1="185.00" x2="280.00" y2="235.00" stroke="#999999" stroke-width="3" stroke-linecap="round" stroke-dasharray="0 6.250" />
    </g>
    <g class="edge" data-edge-idx="4" data-edge-base="nearto" data-edge-from="2" data-edge-to="3">
    <line x1="280.00" y1="305.00" x2="280.00" y2="355.00" stroke="#999999" stroke-width="3" stroke-linecap="round" stroke-dasharray="0 6.250" />
    </g>
    <g class="edge" data-edge-idx="5" data-edge-base="nearto" data-edge-from="1" data-edge-to="3">
    <polyline points="345.00,170.00 380,205 380,335 345.00,370.00" fill="none" stroke="#999999" stroke-width="3" stroke-linecap="round" stroke-dasharray="0 6.026" />
    </g>
    <g class="edge" data-edge-idx="6" data-edge-base="leadsto" data-edge-from="5" data-edge-to="4">
    <line x1="100.00" y1="85.00" x2="100.00" y2="228.25" stroke="#ff8000" stroke-width="3" />
    <path d="M 100.00 235.00 L 95.50 226.00 L 100.00 228.25 L 104.50 226.00 Z" fill="#ff8000" stroke="#ff8000" stroke-width="3" stroke-miterlimit="10"/>
    </g>
    <g class="edge" data-edge-idx="7" data-edge-base="leadsto" data-edge-from="4" data-edge-to="6">
    <line x1="100.00" y1="305.00" x2="100.00" y2="448.25" stroke="#ff8000" stroke-width="3" />
    <path d="M 100.00 455.00 L 95.50 446.00 L 100.00 448.25 L 104.50 446.00 Z" fill="#ff8000" stroke="#ff8000" stroke-width="3" stroke-miterlimit="10"/>
    </g>
  </g>
  <g id="nodes">
    <rect x="220" y="120" width="120" height="60" rx="6" ry="6" fill="#ffe6cc" stroke="#ff8000" stroke-width="2"/>
    <text x="280" y="150" text-anchor="middle" dominant-baseline="middle" font-family="Helvetica,Inter,Segoe UI,Arial" font-size="16" font-weight="bold" fill="#ff8000">e1a</text>
    <rect x="220" y="240" width="120" height="60" rx="6" ry="6" fill="#ffe6cc" stroke="#ff8000" stroke-width="2"/>
    <text x="280" y="270" text-anchor="middle" dominant-baseline="middle" font-family="Helvetica,Inter,Segoe UI,Arial" font-size="16" font-weight="bold" fill="#ff8000">e1b</text>
    <rect x="220" y="360" width="120" height="60" rx="6" ry="6" fill="#ffe6cc" stroke="#ff8000" stroke-width="2"/>
    <text x="280" y="390" text-anchor="middle" dominant-baseline="middle" font-family="Helvetica,Inter,Segoe UI,Arial" font-size="16" font-weight="bold" fill="#ff8000">e1c</text>
    <rect x="40" y="240" width="120" height="60" rx="6" ry="6" fill="#ffe6cc" stroke="#ff8000" stroke-width="2"/>
    <text x="100" y="270" text-anchor="middle" dominant-baseline="middle" font-family="Helvetica,Inter,Segoe UI,Arial" font-size="16" font-weight="bold" fill="#ff8000">e1</text>
    <rect x="80" y="40" width="40" height="40" rx="4" ry="4" fill="#ffe6cc" stroke="#ff8000" stroke-width="2"/>
    <text x="100" y="60" text-anchor="middle" dominant-baseline="middle" font-family="Helvetica,Inter,Segoe UI,Arial" font-size="16" font-weight="bold" fill="#ff8000">S</text>
    <rect x="80" y="460" width="40" height="40" rx="4" ry="4" fill="#ffe6cc" stroke="#ff8000" stroke-width="2"/>
    <text x="100" y="480" text-anchor="middle" dominant-baseline="middle" font-family="Helvetica,Inter,Segoe UI,Arial" font-size="16" font-weight="bold" fill="#ff8000">E</text>
  </g>
</svg>
