<?xml version="1.0" encoding="UTF-8"?>
<svg xmlns="http://www.w3.org/2000/svg" width="1160" height="600" viewBox="0 0 1160 600">
  <!-- ipm-svg meta: generated-by=md-embed@dev hash=123424bc source-file=docs/dev/layout-gen/layout-alg.md source-id=1ya -->

  <defs>
  </defs>
  <g id="container-shells">
  </g>
  <g id="node-shadows">
    <rect x="40" y="220" width="120" height="60" rx="6" ry="6" fill="#000000" stroke="#000000" stroke-width="2" opacity="0.25" transform="translate(2,3)"/>
    <rect x="520" y="420" width="120" height="60" rx="6" ry="6" fill="#000000" stroke="#000000" stroke-width="2" opacity="0.25" transform="translate(2,3)"/>
    <rect x="280" y="220" width="120" height="60" rx="6" ry="6" fill="#000000" stroke="#000000" stroke-width="2" opacity="0.25" transform="translate(2,3)"/>
    <rect x="520" y="220" width="120" height="60" rx="6" ry="6" fill="#000000" stroke="#000000" stroke-width="2" opacity="0.25" transform="translate(2,3)"/>
    <rect x="760" y="220" width="120" height="60" rx="6" ry="6" fill="#000000" stroke="#000000" stroke-width="2" opacity="0.25" transform="translate(2,3)"/>
    <rect x="1000" y="220" width="120" height="60" rx="6" ry="6" fill="#000000" stroke="#000000" stroke-width="2" opacity="0.25" transform="translate(2,3)"/>
    <rect x="560" y="40" width="40" height="40" rx="4" ry="4" fill="#000000" stroke="#000000" stroke-width="2" opacity="0.25" transform="translate(2,3)"/>
    <rect x="560" y="520" width="40" height="40" rx="4" ry="4" fill="#000000" stroke="#000000" stroke-width="2" opacity="0.25" transform="translate(2,3)"/>
  </g>
  <g id="edges">
    <g class="edge" data-edge-idx="0" data-edge-base="leadsto" data-edge-from="1" data-edge-to="2">
    <line x1="115.25" y1="284.85" x2="518.32" y2="413.10" stroke="#ff8000" stroke-width="3" />
    <path d="M 524.75 415.15 L 514.81 416.71 L 518.32 413.10 L 517.54 408.13 Z" fill="#ff8000" stroke="#ff8000" stroke-width="3" stroke-miterlimit="10"/>
    </g>
    <g class="edge" data-edge-idx="1" data-edge-base="leadsto" data-edge-from="3" data-edge-to="2">
    <line x1="347.86" y1="285.00" x2="546.45" y2="411.38" stroke="#ff8000" stroke-width="3" />
    <path d="M 552.14 415.00 L 542.13 413.96 L 546.45 411.38 L 546.97 406.37 Z" fill="#ff8000" stroke="#ff8000" stroke-width="3" stroke-miterlimit="10"/>
    </g>
    <g class="edge" data-edge-idx="2" data-edge-base="leadsto" data-edge-from="4" data-edge-to="2">
    <line x1="580.00" y1="285.00" x2="580.00" y2="408.25" stroke="#ff8000" stroke-width="3" />
    <path d="M 580.00 415.00 L 575.50 406.00 L 580.00 408.25 L 584.50 406.00 Z" fill="#ff8000" stroke="#ff8000" stroke-width="3" stroke-miterlimit="10"/>
    </g>
    <g class="edge" data-edge-idx="3" data-edge-base="leadsto" data-edge-from="5" data-edge-to="2">
    <line x1="812.14" y1="285.00" x2="613.55" y2="411.38" stroke="#ff8000" stroke-width="3" />
    <path d="M 607.86 415.00 L 613.03 406.37 L 613.55 411.38 L 617.87 413.96 Z" fill="#ff8000" stroke="#ff8000" stroke-width="3" stroke-miterlimit="10"/>
    </g>
    <g class="edge" data-edge-idx="4" data-edge-base="leadsto" data-edge-from="6" data-edge-to="2">
    <line x1="1044.75" y1="284.85" x2="641.68" y2="413.10" stroke="#ff8000" stroke-width="3" />
    <path d="M 635.25 415.15 L 642.46 408.13 L 641.68 413.10 L 645.19 416.71 Z" fill="#ff8000" stroke="#ff8000" stroke-width="3" stroke-miterlimit="10"/>
    </g>
    <g class="edge" data-edge-idx="5" data-edge-base="leadsto" data-edge-from="7" data-edge-to="1">
    <line x1="550.68" y1="84.60" x2="121.79" y2="213.45" stroke="#ff8000" stroke-width="3" />
    <path d="M 115.32 215.40 L 122.65 208.50 L 121.79 213.45 L 125.24 217.12 Z" fill="#ff8000" stroke="#ff8000" stroke-width="3" stroke-miterlimit="10"/>
    </g>
    <g class="edge" data-edge-idx="6" data-edge-base="leadsto" data-edge-from="7" data-edge-to="3">
    <line x1="564.68" y1="85.00" x2="354.11" y2="211.52" stroke="#ff8000" stroke-width="3" />
    <path d="M 348.32 215.00 L 353.72 206.51 L 354.11 211.52 L 358.35 214.22 Z" fill="#ff8000" stroke="#ff8000" stroke-width="3" stroke-miterlimit="10"/>
    </g>
    <g class="edge" data-edge-idx="7" data-edge-base="leadsto" data-edge-from="7" data-edge-to="4">
    <line x1="580.00" y1="85.00" x2="580.00" y2="208.25" stroke="#ff8000" stroke-width="3" />
    <path d="M 580.00 215.00 L 575.50 206.00 L 580.00 208.25 L 584.50 206.00 Z" fill="#ff8000" stroke="#ff8000" stroke-width="3" stroke-miterlimit="10"/>
    </g>
    <g class="edge" data-edge-idx="8" data-edge-base="leadsto" data-edge-from="7" data-edge-to="5">
    <line x1="594.36" y1="85.00" x2="805.85" y2="211.53" stroke="#ff8000" stroke-width="3" />
    <path d="M 811.64 215.00 L 801.61 214.24 L 805.85 211.53 L 806.23 206.52 Z" fill="#ff8000" stroke="#ff8000" stroke-width="3" stroke-miterlimit="10"/>
    </g>
    <g class="edge" data-edge-idx="9" data-edge-base="leadsto" data-edge-from="7" data-edge-to="6">
    <line x1="608.33" y1="84.59" x2="1038.21" y2="213.47" stroke="#ff8000" stroke-width="3" />
    <path d="M 1044.67 215.41 L 1034.76 217.13 L 1038.21 213.47 L 1037.35 208.51 Z" fill="#ff8000" stroke="#ff8000" stroke-width="3" stroke-miterlimit="10"/>
    </g>
    <g class="edge" data-edge-idx="10" data-edge-base="leadsto" data-edge-from="2" data-edge-to="8">
    <line x1="580.00" y1="485.00" x2="580.00" y2="508.25" stroke="#ff8000" stroke-width="3" />
    <path d="M 580.00 515.00 L 575.50 506.00 L 580.00 508.25 L 584.50 506.00 Z" fill="#ff8000" stroke="#ff8000" stroke-width="3" stroke-miterlimit="10"/>
    </g>
  </g>
  <g id="nodes">
    <rect x="40" y="220" width="120" height="60" rx="6" ry="6" fill="#ffe6cc" stroke="#ff8000" stroke-width="2"/>
    <text x="100" y="250" text-anchor="middle" dominant-baseline="middle" font-family="Helvetica,Inter,Segoe UI,Arial" font-size="16" font-weight="bold" fill="#ff8000">e1</text>
    <rect x="520" y="420" width="120" height="60" rx="6" ry="6" fill="#ffe6cc" stroke="#ff8000" stroke-width="2"/>
    <text x="580" y="450" text-anchor="middle" dominant-baseline="middle" font-family="Helvetica,Inter,Segoe UI,Arial" font-size="16" font-weight="bold" fill="#ff8000">j</text>
    <rect x="280" y="220" width="120" height="60" rx="6" ry="6" fill="#ffe6cc" stroke="#ff8000" stroke-width="2"/>
    <text x="340" y="250" text-anchor="middle" dominant-baseline="middle" font-family="Helvetica,Inter,Segoe UI,Arial" font-size="16" font-weight="bold" fill="#ff8000">e2</text>
    <rect x="520" y="220" width="120" height="60" rx="6" ry="6" fill="#ffe6cc" stroke="#ff8000" stroke-width="2"/>
    <text x="580" y="250" text-anchor="middle" dominant-baseline="middle" font-family="Helvetica,Inter,Segoe UI,Arial" font-size="16" font-weight="bold" fill="#ff8000">e3</text>
    <rect x="760" y="220" width="120" height="60" rx="6" ry="6" fill="#ffe6cc" stroke="#ff8000" stroke-width="2"/>
    <text x="820" y="250" text-anchor="middle" dominant-baseline="middle" font-family="Helvetica,Inter,Segoe UI,Arial" font-size="16" font-weight="bold" fill="#ff8000">e4</text>
    <rect x="1000" y="220" width="120" height="60" rx="6" ry="6" fill="#ffe6cc" stroke="#ff8000" stroke-width="2"/>
    <text x="1060" y="250" text-anchor="middle" dominant-baseline="middle" font-family="Helvetica,Inter,Segoe UI,Arial" font-size="16" font-weight="bold" fill="#ff8000">e5</text>
    <rect x="560" y="40" width="40" height="40" rx="4" ry="4" fill="#ffe6cc" stroke="#ff8000" stroke-width="2"/>
    <text x="580" y="60" text-anchor="middle" dominant-baseline="middle" font-family="Helvetica,Inter,Segoe UI,Arial" font-size="16" font-weight="bold" fill="#ff8000">S</text>
    <rect x="560" y="520" width="40" height="40" rx="4" ry="4" fill="#ffe6cc" stroke="#ff8000" stroke-width="2"/>
    <text x="580" y="540" text-anchor="middle" dominant-baseline="middle" font-family="Helvetica,Inter,Segoe UI,Arial" font-size="16" font-weight="bold" fill="#ff8000">E</text>
  </g>
</svg>
