<?xml version="1.0" encoding="UTF-8"?>
<svg xmlns="http://www.w3.org/2000/svg" width="420" height="340" viewBox="0 0 420 340">
  <!-- ipm-svg meta: generated-by=md-embed@dev hash=cab6c6d7 source-file=docs/dev/layout-gen/layout-alg.md source-id=1yh -->

  <defs>
  </defs>
  <g id="container-shells">
  </g>
  <g id="node-shadows">
    <rect x="40" y="40" width="120" height="60" rx="6" ry="6" fill="#000000" stroke="#000000" stroke-width="2" opacity="0.25" transform="translate(2,3)"/>
    <rect x="40" y="140" width="120" height="60" rx="6" ry="6" fill="#000000" stroke="#000000" stroke-width="2" opacity="0.25" transform="translate(2,3)"/>
    <rect x="40" y="240" width="120" height="60" rx="6" ry="6" fill="#000000" stroke="#000000" stroke-width="2" opacity="0.25" transform="translate(2,3)"/>
    <rect x="260" y="140" width="120" height="60" rx="6" ry="6" fill="#000000" stroke="#000000" stroke-width="2" opacity="0.25" transform="translate(2,3)"/>
  </g>
  <g id="edges">
    <g class="edge" data-edge-idx="0" data-edge-base="expresses" data-edge-from="1" data-edge-to="2">
    <line x1="100.00" y1="105.00" x2="100.00" y2="128.25" stroke="#6c8ebf" stroke-width="3" stroke-dasharray="9 6" />
    <path d="M 100.00 135.00 L 95.50 126.00 L 100.00 128.25 L 104.50 126.00 Z" fill="#6c8ebf" stroke="#6c8ebf" stroke-width="3" stroke-miterlimit="10"/>
    </g>
    <g class="edge" data-edge-idx="1" data-edge-base="expresses" data-edge-from="2" data-edge-to="3">
    <line x1="100.00" y1="205.00" x2="100.00" y2="228.25" stroke="#6c8ebf" stroke-width="3" stroke-dasharray="9 6" />
    <path d="M 100.00 235.00 L 95.50 226.00 L 100.00 228.25 L 104.50 226.00 Z" fill="#6c8ebf" stroke="#6c8ebf" stroke-width="3" stroke-miterlimit="10"/>
    </g>
    <g class="edge" data-edge-idx="2" data-edge-base="nearto" data-edge-from="2" data-edge-to="4">
    <line x1="165.00" y1="170.00" x2="255.00" y2="170.00" stroke="#999999" stroke-width="3" stroke-linecap="round" stroke-dasharray="0 6.000" />
    </g>
  </g>
  <g id="nodes">
    <rect x="40" y="40" width="120" height="60" rx="6" ry="6" fill="#dae8fc" stroke="#6c8ebf" stroke-width="2"/>
    <text x="100" y="70" text-anchor="middle" dominant-baseline="middle" font-family="Helvetica,Inter,Segoe UI,Arial" font-size="16" font-weight="normal" fill="#3399ff">c1-leaf</text>
    <rect x="40" y="140" width="120" height="60" rx="6" ry="6" fill="#dae8fc" stroke="#6c8ebf" stroke-width="2"/>
    <text x="100" y="170" text-anchor="middle" dominant-baseline="middle" font-family="Helvetica,Inter,Segoe UI,Arial" font-size="16" font-weight="normal" fill="#3399ff">c2-mid</text>
    <rect x="40" y="240" width="120" height="60" rx="6" ry="6" fill="#dae8fc" stroke="#6c8ebf" stroke-width="2"/>
    <text x="100" y="270" text-anchor="middle" dominant-baseline="middle" font-family="Helvetica,Inter,Segoe UI,Arial" font-size="16" font-weight="normal" fill="#3399ff">c3-root</text>
    <rect x="260" y="140" width="120" height="60" rx="6" ry="6" fill="#dae8fc" stroke="#6c8ebf" stroke-width="2"/>
    <text x="320" y="170" text-anchor="middle" dominant-baseline="middle" font-family="Helvetica,Inter,Segoe UI,Arial" font-size="16" font-weight="normal" fill="#3399ff">cX</text>
  </g>
</svg>
