<?xml version="1.0" encoding="UTF-8"?>
<svg xmlns="http://www.w3.org/2000/svg" width="580" height="820" viewBox="0 0 580 820">
  <defs>
  </defs>
  <g id="container-shells">
    <rect x="40" y="240" width="340" height="340" rx="10" ry="10" fill="#fff5eb" stroke="#ff8000" stroke-width="2" stroke-dasharray="8 4" opacity="0.6"/>
  </g>
  <g id="node-shadows">
    <rect x="60" y="120" width="120" height="60" rx="6" ry="6" fill="#000000" stroke="#000000" stroke-width="2" opacity="0.25" transform="translate(2,3)"/>
    <rect x="100" y="40" width="40" height="40" rx="4" ry="4" fill="#000000" stroke="#000000" stroke-width="2" opacity="0.25" transform="translate(2,3)"/>
    <rect x="100" y="740" width="40" height="40" rx="4" ry="4" fill="#000000" stroke="#000000" stroke-width="2" opacity="0.25" transform="translate(2,3)"/>
    <rect x="60" y="380" width="120" height="60" rx="6" ry="6" fill="#000000" stroke="#000000" stroke-width="2" opacity="0.25" transform="translate(2,3)"/>
    <rect x="60" y="640" width="120" height="60" rx="6" ry="6" fill="#000000" stroke="#000000" stroke-width="2" opacity="0.25" transform="translate(2,3)"/>
    <rect x="240" y="260" width="120" height="60" rx="6" ry="6" fill="#000000" stroke="#000000" stroke-width="2" opacity="0.25" transform="translate(2,3)"/>
    <rect x="240" y="380" width="120" height="60" rx="6" ry="6" fill="#000000" stroke="#000000" stroke-width="2" opacity="0.25" transform="translate(2,3)"/>
    <rect x="240" y="500" width="120" height="60" rx="6" ry="6" fill="#000000" stroke="#000000" stroke-width="2" opacity="0.25" transform="translate(2,3)"/>
    <rect x="420" y="380" width="120" height="60" rx="6" ry="6" fill="#000000" stroke="#000000" stroke-width="2" opacity="0.25" transform="translate(2,3)"/>
    <rect x="420" y="500" width="120" height="60" rx="6" ry="6" fill="#000000" stroke="#000000" stroke-width="2" opacity="0.25" transform="translate(2,3)"/>
  </g>
  <g id="edges">
    <g class="edge" data-edge-idx="0" data-edge-base="leadsto" data-edge-from="1" data-edge-to="2">
    <line x1="120.00" y1="185.00" x2="120.00" y2="368.25" stroke="#ff8000" stroke-width="3" />
    <path d="M 120.00 375.00 L 115.50 366.00 L 120.00 368.25 L 124.50 366.00 Z" fill="#ff8000" stroke="#ff8000" stroke-width="3" stroke-miterlimit="10"/>
    </g>
    <g class="edge" data-edge-idx="1" data-edge-base="leadsto" data-edge-from="2" data-edge-to="3">
    <line x1="120.00" y1="445.00" x2="120.00" y2="628.25" stroke="#ff8000" stroke-width="3" />
    <path d="M 120.00 635.00 L 115.50 626.00 L 120.00 628.25 L 124.50 626.00 Z" fill="#ff8000" stroke="#ff8000" stroke-width="3" stroke-miterlimit="10"/>
    </g>
    <g class="edge" data-edge-idx="2" data-edge-base="leadsto" data-edge-from="4" data-edge-to="5">
    <line x1="300.00" y1="325.00" x2="300.00" y2="368.25" stroke="#ff8000" stroke-width="3" />
    <path d="M 300.00 375.00 L 295.50 366.00 L 300.00 368.25 L 304.50 366.00 Z" fill="#ff8000" stroke="#ff8000" stroke-width="3" stroke-miterlimit="10"/>
    </g>
    <g class="edge" data-edge-idx="3" data-edge-base="leadsto" data-edge-from="5" data-edge-to="6">
    <line x1="300.00" y1="445.00" x2="300.00" y2="488.25" stroke="#ff8000" stroke-width="3" />
    <path d="M 300.00 495.00 L 295.50 486.00 L 300.00 488.25 L 304.50 486.00 Z" fill="#ff8000" stroke="#ff8000" stroke-width="3" stroke-miterlimit="10"/>
    </g>
    <g class="edge" data-edge-idx="4" data-edge-base="partof" data-edge-from="4" data-edge-to="2">
    <line x1="235.00" y1="299.17" x2="188.23" y2="384.91" stroke="#82b366" stroke-width="3" />
    <path d="M 185.00 390.83 L 185.36 380.78 L 188.23 384.91 L 193.26 385.09 Z" fill="#82b366" stroke="#82b366" stroke-width="3" stroke-miterlimit="10"/>
    </g>
    <g class="edge" data-edge-idx="5" data-edge-base="partof" data-edge-from="5" data-edge-to="2">
    <line x1="235.00" y1="410.00" x2="191.75" y2="410.00" stroke="#82b366" stroke-width="3" />
    <path d="M 185.00 410.00 L 194.00 405.50 L 191.75 410.00 L 194.00 414.50 Z" fill="#82b366" stroke="#82b366" stroke-width="3" stroke-miterlimit="10"/>
    </g>
    <g class="edge" data-edge-idx="6" data-edge-base="partof" data-edge-from="6" data-edge-to="2">
    <line x1="235.00" y1="520.83" x2="188.23" y2="435.09" stroke="#82b366" stroke-width="3" />
    <path d="M 185.00 429.17 L 193.26 434.91 L 188.23 435.09 L 185.36 439.22 Z" fill="#82b366" stroke="#82b366" stroke-width="3" stroke-miterlimit="10"/>
    </g>
    <g class="edge" data-edge-idx="7" data-edge-base="partof" data-edge-from="7" data-edge-to="5">
    <line x1="415.00" y1="410.00" x2="371.75" y2="410.00" stroke="#82b366" stroke-width="3" />
    <path d="M 365.00 410.00 L 374.00 405.50 L 371.75 410.00 L 374.00 414.50 Z" fill="#82b366" stroke="#82b366" stroke-width="3" stroke-miterlimit="10"/>
    </g>
    <g class="edge" data-edge-idx="8" data-edge-base="expresses" data-edge-from="6" data-edge-to="8">
    <line x1="365.00" y1="530.00" x2="408.25" y2="530.00" stroke="#6c8ebf" stroke-width="3" stroke-dasharray="9 6" />
    <path d="M 415.00 530.00 L 406.00 534.50 L 408.25 530.00 L 406.00 525.50 Z" fill="#6c8ebf" stroke="#6c8ebf" stroke-width="3" stroke-miterlimit="10"/>
    </g>
    <g class="edge" data-edge-idx="9" data-edge-base="leadsto" data-edge-from="10" data-edge-to="1">
    <line x1="120.00" y1="85.00" x2="120.00" y2="108.25" stroke="#ff8000" stroke-width="3" />
    <path d="M 120.00 115.00 L 115.50 106.00 L 120.00 108.25 L 124.50 106.00 Z" fill="#ff8000" stroke="#ff8000" stroke-width="3" stroke-miterlimit="10"/>
    </g>
    <g class="edge" data-edge-idx="10" data-edge-base="leadsto" data-edge-from="3" data-edge-to="11">
    <line x1="120.00" y1="705.00" x2="120.00" y2="728.25" stroke="#ff8000" stroke-width="3" />
    <path d="M 120.00 735.00 L 115.50 726.00 L 120.00 728.25 L 124.50 726.00 Z" fill="#ff8000" stroke="#ff8000" stroke-width="3" stroke-miterlimit="10"/>
    </g>
  </g>
  <g id="nodes">
    <rect x="60" y="120" width="120" height="60" rx="6" ry="6" fill="#ffe6cc" stroke="#ff8000" stroke-width="2"/>
    <text x="120" y="150" text-anchor="middle" dominant-baseline="middle" font-family="Helvetica,Inter,Segoe UI,Arial" font-size="16" font-weight="bold" fill="#ff8000">e1</text>
    <rect x="100" y="40" width="40" height="40" rx="4" ry="4" fill="#ffe6cc" stroke="#ff8000" stroke-width="2"/>
    <text x="120" y="60" text-anchor="middle" dominant-baseline="middle" font-family="Helvetica,Inter,Segoe UI,Arial" font-size="16" font-weight="bold" fill="#ff8000">S</text>
    <rect x="100" y="740" width="40" height="40" rx="4" ry="4" fill="#ffe6cc" stroke="#ff8000" stroke-width="2"/>
    <text x="120" y="760" text-anchor="middle" dominant-baseline="middle" font-family="Helvetica,Inter,Segoe UI,Arial" font-size="16" font-weight="bold" fill="#ff8000">E</text>
    <rect x="60" y="380" width="120" height="60" rx="6" ry="6" fill="#ffe6cc" stroke="#ff8000" stroke-width="2"/>
    <text x="120" y="410" text-anchor="middle" dominant-baseline="middle" font-family="Helvetica,Inter,Segoe UI,Arial" font-size="16" font-weight="bold" fill="#ff8000">eC</text>
    <rect x="60" y="640" width="120" height="60" rx="6" ry="6" fill="#ffe6cc" stroke="#ff8000" stroke-width="2"/>
    <text x="120" y="670" text-anchor="middle" dominant-baseline="middle" font-family="Helvetica,Inter,Segoe UI,Arial" font-size="16" font-weight="bold" fill="#ff8000">e2</text>
    <rect x="240" y="260" width="120" height="60" rx="6" ry="6" fill="#ffe6cc" stroke="#ff8000" stroke-width="2"/>
    <text x="300" y="290" text-anchor="middle" dominant-baseline="middle" font-family="Helvetica,Inter,Segoe UI,Arial" font-size="16" font-weight="bold" fill="#ff8000">m1</text>
    <rect x="240" y="380" width="120" height="60" rx="6" ry="6" fill="#ffe6cc" stroke="#ff8000" stroke-width="2"/>
    <text x="300" y="410" text-anchor="middle" dominant-baseline="middle" font-family="Helvetica,Inter,Segoe UI,Arial" font-size="16" font-weight="bold" fill="#ff8000">m2</text>
    <rect x="240" y="500" width="120" height="60" rx="6" ry="6" fill="#ffe6cc" stroke="#ff8000" stroke-width="2"/>
    <text x="300" y="530" text-anchor="middle" dominant-baseline="middle" font-family="Helvetica,Inter,Segoe UI,Arial" font-size="16" font-weight="bold" fill="#ff8000">m3</text>
    <rect x="420" y="380" width="120" height="60" rx="6" ry="6" fill="#d5e8d4" stroke="#82b366" stroke-width="2"/>
    <text x="480" y="410" text-anchor="middle" dominant-baseline="middle" font-family="Helvetica,Inter,Segoe UI,Arial" font-size="16" font-weight="normal" fill="#009900">tX</text>
    <rect x="420" y="500" width="120" height="60" rx="6" ry="6" fill="#dae8fc" stroke="#6c8ebf" stroke-width="2"/>
    <text x="480" y="530" text-anchor="middle" dominant-baseline="middle" font-family="Helvetica,Inter,Segoe UI,Arial" font-size="16" font-weight="normal" fill="#3399ff">cY</text>
  </g>
</svg>
