<?xml version="1.0" encoding="UTF-8"?>
<svg xmlns="http://www.w3.org/2000/svg" width="1640" height="540" viewBox="0 0 1640 540">
  <!-- ipm-svg meta: generated-by=md-embed@dev hash=595ded10 source-file=docs/dev/layout-gen/layout-alg-ext.md source-id=1hv -->

  <defs>
  </defs>
  <g id="container-shells">
  </g>
  <g id="node-shadows">
    <rect x="280" y="120" width="120" height="60" rx="6" ry="6" fill="#000000" stroke="#000000" stroke-width="2" opacity="0.25" transform="translate(2,3)"/>
    <rect x="1240" y="120" width="120" height="60" rx="6" ry="6" fill="#000000" stroke="#000000" stroke-width="2" opacity="0.25" transform="translate(2,3)"/>
    <rect x="1240" y="240" width="120" height="60" rx="6" ry="6" fill="#000000" stroke="#000000" stroke-width="2" opacity="0.25" transform="translate(2,3)"/>
    <rect x="1480" y="240" width="120" height="60" rx="6" ry="6" fill="#000000" stroke="#000000" stroke-width="2" opacity="0.25" transform="translate(2,3)"/>
    <rect x="320" y="40" width="40" height="40" rx="4" ry="4" fill="#000000" stroke="#000000" stroke-width="2" opacity="0.25" transform="translate(2,3)"/>
    <rect x="320" y="460" width="40" height="40" rx="4" ry="4" fill="#000000" stroke="#000000" stroke-width="2" opacity="0.25" transform="translate(2,3)"/>
    <rect x="560" y="160" width="40" height="40" rx="4" ry="4" fill="#000000" stroke="#000000" stroke-width="2" opacity="0.25" transform="translate(2,3)"/>
    <rect x="560" y="340" width="40" height="40" rx="4" ry="4" fill="#000000" stroke="#000000" stroke-width="2" opacity="0.25" transform="translate(2,3)"/>
    <rect x="80" y="160" width="40" height="40" rx="4" ry="4" fill="#000000" stroke="#000000" stroke-width="2" opacity="0.25" transform="translate(2,3)"/>
    <rect x="80" y="340" width="40" height="40" rx="4" ry="4" fill="#000000" stroke="#000000" stroke-width="2" opacity="0.25" transform="translate(2,3)"/>
    <rect x="800" y="40" width="40" height="40" rx="4" ry="4" fill="#000000" stroke="#000000" stroke-width="2" opacity="0.25" transform="translate(2,3)"/>
    <rect x="280" y="240" width="120" height="60" rx="6" ry="6" fill="#000000" stroke="#000000" stroke-width="2" opacity="0.25" transform="translate(2,3)"/>
    <rect x="800" y="460" width="40" height="40" rx="4" ry="4" fill="#000000" stroke="#000000" stroke-width="2" opacity="0.25" transform="translate(2,3)"/>
    <rect x="1040" y="280" width="40" height="40" rx="4" ry="4" fill="#000000" stroke="#000000" stroke-width="2" opacity="0.25" transform="translate(2,3)"/>
    <rect x="1040" y="460" width="40" height="40" rx="4" ry="4" fill="#000000" stroke="#000000" stroke-width="2" opacity="0.25" transform="translate(2,3)"/>
    <rect x="1280" y="40" width="40" height="40" rx="4" ry="4" fill="#000000" stroke="#000000" stroke-width="2" opacity="0.25" transform="translate(2,3)"/>
    <rect x="1280" y="340" width="40" height="40" rx="4" ry="4" fill="#000000" stroke="#000000" stroke-width="2" opacity="0.25" transform="translate(2,3)"/>
    <rect x="1520" y="160" width="40" height="40" rx="4" ry="4" fill="#000000" stroke="#000000" stroke-width="2" opacity="0.25" transform="translate(2,3)"/>
    <rect x="1520" y="340" width="40" height="40" rx="4" ry="4" fill="#000000" stroke="#000000" stroke-width="2" opacity="0.25" transform="translate(2,3)"/>
    <rect x="280" y="360" width="120" height="60" rx="6" ry="6" fill="#000000" stroke="#000000" stroke-width="2" opacity="0.25" transform="translate(2,3)"/>
    <rect x="520" y="240" width="120" height="60" rx="6" ry="6" fill="#000000" stroke="#000000" stroke-width="2" opacity="0.25" transform="translate(2,3)"/>
    <rect x="40" y="240" width="120" height="60" rx="6" ry="6" fill="#000000" stroke="#000000" stroke-width="2" opacity="0.25" transform="translate(2,3)"/>
    <rect x="760" y="120" width="120" height="60" rx="6" ry="6" fill="#000000" stroke="#000000" stroke-width="2" opacity="0.25" transform="translate(2,3)"/>
    <rect x="760" y="240" width="120" height="60" rx="6" ry="6" fill="#000000" stroke="#000000" stroke-width="2" opacity="0.25" transform="translate(2,3)"/>
    <rect x="760" y="360" width="120" height="60" rx="6" ry="6" fill="#000000" stroke="#000000" stroke-width="2" opacity="0.25" transform="translate(2,3)"/>
    <rect x="1000" y="360" width="120" height="60" rx="6" ry="6" fill="#000000" stroke="#000000" stroke-width="2" opacity="0.25" transform="translate(2,3)"/>
  </g>
  <g id="edges">
    <g class="edge" data-edge-idx="0" data-edge-base="leadsto" data-edge-from="1" data-edge-to="2">
    <line x1="340.00" y1="185.00" x2="340.00" y2="228.25" stroke="#ff8000" stroke-width="3" />
    <path d="M 340.00 235.00 L 335.50 226.00 L 340.00 228.25 L 344.50 226.00 Z" fill="#ff8000" stroke="#ff8000" stroke-width="3" stroke-miterlimit="10"/>
    </g>
    <g class="edge" data-edge-idx="1" data-edge-base="leadsto" data-edge-from="2" data-edge-to="3">
    <line x1="340.00" y1="305.00" x2="340.00" y2="348.25" stroke="#ff8000" stroke-width="3" />
    <path d="M 340.00 355.00 L 335.50 346.00 L 340.00 348.25 L 344.50 346.00 Z" fill="#ff8000" stroke="#ff8000" stroke-width="3" stroke-miterlimit="10"/>
    </g>
    <g class="edge" data-edge-idx="2" data-edge-base="expresses" data-edge-from="4" data-edge-to="2">
    <line x1="515.00" y1="270.00" x2="411.75" y2="270.00" stroke="#6c8ebf" stroke-width="3" stroke-dasharray="9 6" />
    <path d="M 405.00 270.00 L 414.00 265.50 L 411.75 270.00 L 414.00 274.50 Z" fill="#6c8ebf" stroke="#6c8ebf" stroke-width="3" stroke-miterlimit="10"/>
    </g>
    <g class="edge" data-edge-idx="3" data-edge-base="expresses" data-edge-from="5" data-edge-to="2">
    <line x1="165.00" y1="270.00" x2="268.25" y2="270.00" stroke="#6c8ebf" stroke-width="3" stroke-dasharray="9 6" />
    <path d="M 275.00 270.00 L 266.00 274.50 L 268.25 270.00 L 266.00 265.50 Z" fill="#6c8ebf" stroke="#6c8ebf" stroke-width="3" stroke-miterlimit="10"/>
    </g>
    <g class="edge" data-edge-idx="4" data-edge-base="leadsto" data-edge-from="6" data-edge-to="7">
    <line x1="820.00" y1="185.00" x2="820.00" y2="228.25" stroke="#ff8000" stroke-width="3" />
    <path d="M 820.00 235.00 L 815.50 226.00 L 820.00 228.25 L 824.50 226.00 Z" fill="#ff8000" stroke="#ff8000" stroke-width="3" stroke-miterlimit="10"/>
    </g>
    <g class="edge" data-edge-idx="5" data-edge-base="leadsto" data-edge-from="7" data-edge-to="8">
    <line x1="820.00" y1="305.00" x2="820.00" y2="348.25" stroke="#ff8000" stroke-width="3" />
    <path d="M 820.00 355.00 L 815.50 346.00 L 820.00 348.25 L 824.50 346.00 Z" fill="#ff8000" stroke="#ff8000" stroke-width="3" stroke-miterlimit="10"/>
    </g>
    <g class="edge" data-edge-idx="6" data-edge-base="nearto" data-edge-from="9" data-edge-to="8">
    <line x1="995.00" y1="390.00" x2="885.00" y2="390.00" stroke="#999999" stroke-width="3" stroke-linecap="round" stroke-dasharray="0 6.111" />
    </g>
    <g class="edge" data-edge-idx="7" data-edge-base="leadsto" data-edge-from="10" data-edge-to="11">
    <line x1="1300.00" y1="185.00" x2="1300.00" y2="228.25" stroke="#ff8000" stroke-width="3" />
    <path d="M 1300.00 235.00 L 1295.50 226.00 L 1300.00 228.25 L 1304.50 226.00 Z" fill="#ff8000" stroke="#ff8000" stroke-width="3" stroke-miterlimit="10"/>
    </g>
    <g class="edge" data-edge-idx="8" data-edge-base="nearto" data-edge-from="12" data-edge-to="11">
    <line x1="1475.00" y1="270.00" x2="1365.00" y2="270.00" stroke="#999999" stroke-width="3" stroke-linecap="round" stroke-dasharray="0 6.111" />
    </g>
    <g class="edge" data-edge-idx="9" data-edge-base="leadsto" data-edge-from="13" data-edge-to="1">
    <line x1="340.00" y1="85.00" x2="340.00" y2="108.25" stroke="#ff8000" stroke-width="3" />
    <path d="M 340.00 115.00 L 335.50 106.00 L 340.00 108.25 L 344.50 106.00 Z" fill="#ff8000" stroke="#ff8000" stroke-width="3" stroke-miterlimit="10"/>
    </g>
    <g class="edge" data-edge-idx="10" data-edge-base="leadsto" data-edge-from="3" data-edge-to="14">
    <line x1="340.00" y1="425.00" x2="340.00" y2="448.25" stroke="#ff8000" stroke-width="3" />
    <path d="M 340.00 455.00 L 335.50 446.00 L 340.00 448.25 L 344.50 446.00 Z" fill="#ff8000" stroke="#ff8000" stroke-width="3" stroke-miterlimit="10"/>
    </g>
    <g class="edge" data-edge-idx="11" data-edge-base="leadsto" data-edge-from="15" data-edge-to="4">
    <line x1="580.00" y1="205.00" x2="580.00" y2="228.25" stroke="#ff8000" stroke-width="3" />
    <path d="M 580.00 235.00 L 575.50 226.00 L 580.00 228.25 L 584.50 226.00 Z" fill="#ff8000" stroke="#ff8000" stroke-width="3" stroke-miterlimit="10"/>
    </g>
    <g class="edge" data-edge-idx="12" data-edge-base="leadsto" data-edge-from="4" data-edge-to="16">
    <line x1="580.00" y1="305.00" x2="580.00" y2="328.25" stroke="#ff8000" stroke-width="3" />
    <path d="M 580.00 335.00 L 575.50 326.00 L 580.00 328.25 L 584.50 326.00 Z" fill="#ff8000" stroke="#ff8000" stroke-width="3" stroke-miterlimit="10"/>
    </g>
    <g class="edge" data-edge-idx="13" data-edge-base="leadsto" data-edge-from="17" data-edge-to="5">
    <line x1="100.00" y1="205.00" x2="100.00" y2="228.25" stroke="#ff8000" stroke-width="3" />
    <path d="M 100.00 235.00 L 95.50 226.00 L 100.00 228.25 L 104.50 226.00 Z" fill="#ff8000" stroke="#ff8000" stroke-width="3" stroke-miterlimit="10"/>
    </g>
    <g class="edge" data-edge-idx="14" data-edge-base="leadsto" data-edge-from="5" data-edge-to="18">
    <line x1="100.00" y1="305.00" x2="100.00" y2="328.25" stroke="#ff8000" stroke-width="3" />
    <path d="M 100.00 335.00 L 95.50 326.00 L 100.00 328.25 L 104.50 326.00 Z" fill="#ff8000" stroke="#ff8000" stroke-width="3" stroke-miterlimit="10"/>
    </g>
    <g class="edge" data-edge-idx="15" data-edge-base="leadsto" data-edge-from="19" data-edge-to="6">
    <line x1="820.00" y1="85.00" x2="820.00" y2="108.25" stroke="#ff8000" stroke-width="3" />
    <path d="M 820.00 115.00 L 815.50 106.00 L 820.00 108.25 L 824.50 106.00 Z" fill="#ff8000" stroke="#ff8000" stroke-width="3" stroke-miterlimit="10"/>
    </g>
    <g class="edge" data-edge-idx="16" data-edge-base="leadsto" data-edge-from="8" data-edge-to="20">
    <line x1="820.00" y1="425.00" x2="820.00" y2="448.25" stroke="#ff8000" stroke-width="3" />
    <path d="M 820.00 455.00 L 815.50 446.00 L 820.00 448.25 L 824.50 446.00 Z" fill="#ff8000" stroke="#ff8000" stroke-width="3" stroke-miterlimit="10"/>
    </g>
    <g class="edge" data-edge-idx="17" data-edge-base="leadsto" data-edge-from="21" data-edge-to="9">
    <line x1="1060.00" y1="325.00" x2="1060.00" y2="348.25" stroke="#ff8000" stroke-width="3" />
    <path d="M 1060.00 355.00 L 1055.50 346.00 L 1060.00 348.25 L 1064.50 346.00 Z" fill="#ff8000" stroke="#ff8000" stroke-width="3" stroke-miterlimit="10"/>
    </g>
    <g class="edge" data-edge-idx="18" data-edge-base="leadsto" data-edge-from="9" data-edge-to="22">
    <line x1="1060.00" y1="425.00" x2="1060.00" y2="448.25" stroke="#ff8000" stroke-width="3" />
    <path d="M 1060.00 455.00 L 1055.50 446.00 L 1060.00 448.25 L 1064.50 446.00 Z" fill="#ff8000" stroke="#ff8000" stroke-width="3" stroke-miterlimit="10"/>
    </g>
    <g class="edge" data-edge-idx="19" data-edge-base="leadsto" data-edge-from="23" data-edge-to="10">
    <line x1="1300.00" y1="85.00" x2="1300.00" y2="108.25" stroke="#ff8000" stroke-width="3" />
    <path d="M 1300.00 115.00 L 1295.50 106.00 L 1300.00 108.25 L 1304.50 106.00 Z" fill="#ff8000" stroke="#ff8000" stroke-width="3" stroke-miterlimit="10"/>
    </g>
    <g class="edge" data-edge-idx="20" data-edge-base="leadsto" data-edge-from="11" data-edge-to="24">
    <line x1="1300.00" y1="305.00" x2="1300.00" y2="328.25" stroke="#ff8000" stroke-width="3" />
    <path d="M 1300.00 335.00 L 1295.50 326.00 L 1300.00 328.25 L 1304.50 326.00 Z" fill="#ff8000" stroke="#ff8000" stroke-width="3" stroke-miterlimit="10"/>
    </g>
    <g class="edge" data-edge-idx="21" data-edge-base="leadsto" data-edge-from="25" data-edge-to="12">
    <line x1="1540.00" y1="205.00" x2="1540.00" y2="228.25" stroke="#ff8000" stroke-width="3" />
    <path d="M 1540.00 235.00 L 1535.50 226.00 L 1540.00 228.25 L 1544.50 226.00 Z" fill="#ff8000" stroke="#ff8000" stroke-width="3" stroke-miterlimit="10"/>
    </g>
    <g class="edge" data-edge-idx="22" data-edge-base="leadsto" data-edge-from="12" data-edge-to="26">
    <line x1="1540.00" y1="305.00" x2="1540.00" y2="328.25" stroke="#ff8000" stroke-width="3" />
    <path d="M 1540.00 335.00 L 1535.50 326.00 L 1540.00 328.25 L 1544.50 326.00 Z" fill="#ff8000" stroke="#ff8000" stroke-width="3" stroke-miterlimit="10"/>
    </g>
  </g>
  <g id="nodes">
    <rect x="280" y="120" width="120" height="60" rx="6" ry="6" fill="#ffe6cc" stroke="#ff8000" stroke-width="2"/>
    <text x="340" y="150" text-anchor="middle" dominant-baseline="middle" font-family="Helvetica,Inter,Segoe UI,Arial" font-size="16" font-weight="bold" fill="#ff8000">h1</text>
    <rect x="1240" y="120" width="120" height="60" rx="6" ry="6" fill="#ffe6cc" stroke="#ff8000" stroke-width="2"/>
    <text x="1300" y="150" text-anchor="middle" dominant-baseline="middle" font-family="Helvetica,Inter,Segoe UI,Arial" font-size="16" font-weight="bold" fill="#ff8000">c1</text>
    <rect x="1240" y="240" width="120" height="60" rx="6" ry="6" fill="#ffe6cc" stroke="#ff8000" stroke-width="2"/>
    <text x="1300" y="270" text-anchor="middle" dominant-baseline="middle" font-family="Helvetica,Inter,Segoe UI,Arial" font-size="16" font-weight="bold" fill="#ff8000">c2</text>
    <rect x="1480" y="240" width="120" height="60" rx="6" ry="6" fill="#ffe6cc" stroke="#ff8000" stroke-width="2"/>
    <text x="1540" y="270" text-anchor="middle" dominant-baseline="middle" font-family="Helvetica,Inter,Segoe UI,Arial" font-size="16" font-weight="bold" fill="#ff8000">d1</text>
    <rect x="320" y="40" width="40" height="40" rx="4" ry="4" fill="#ffe6cc" stroke="#ff8000" stroke-width="2"/>
    <text x="340" y="60" text-anchor="middle" dominant-baseline="middle" font-family="Helvetica,Inter,Segoe UI,Arial" font-size="16" font-weight="bold" fill="#ff8000">S</text>
    <rect x="320" y="460" width="40" height="40" rx="4" ry="4" fill="#ffe6cc" stroke="#ff8000" stroke-width="2"/>
    <text x="340" y="480" text-anchor="middle" dominant-baseline="middle" font-family="Helvetica,Inter,Segoe UI,Arial" font-size="16" font-weight="bold" fill="#ff8000">E</text>
    <rect x="560" y="160" width="40" height="40" rx="4" ry="4" fill="#ffe6cc" stroke="#ff8000" stroke-width="2"/>
    <text x="580" y="180" text-anchor="middle" dominant-baseline="middle" font-family="Helvetica,Inter,Segoe UI,Arial" font-size="16" font-weight="bold" fill="#ff8000">S</text>
    <rect x="560" y="340" width="40" height="40" rx="4" ry="4" fill="#ffe6cc" stroke="#ff8000" stroke-width="2"/>
    <text x="580" y="360" text-anchor="middle" dominant-baseline="middle" font-family="Helvetica,Inter,Segoe UI,Arial" font-size="16" font-weight="bold" fill="#ff8000">E</text>
    <rect x="80" y="160" width="40" height="40" rx="4" ry="4" fill="#ffe6cc" stroke="#ff8000" stroke-width="2"/>
    <text x="100" y="180" text-anchor="middle" dominant-baseline="middle" font-family="Helvetica,Inter,Segoe UI,Arial" font-size="16" font-weight="bold" fill="#ff8000">S</text>
    <rect x="80" y="340" width="40" height="40" rx="4" ry="4" fill="#ffe6cc" stroke="#ff8000" stroke-width="2"/>
    <text x="100" y="360" text-anchor="middle" dominant-baseline="middle" font-family="Helvetica,Inter,Segoe UI,Arial" font-size="16" font-weight="bold" fill="#ff8000">E</text>
    <rect x="800" y="40" width="40" height="40" rx="4" ry="4" fill="#ffe6cc" stroke="#ff8000" stroke-width="2"/>
    <text x="820" y="60" text-anchor="middle" dominant-baseline="middle" font-family="Helvetica,Inter,Segoe UI,Arial" font-size="16" font-weight="bold" fill="#ff8000">S</text>
    <rect x="280" y="240" width="120" height="60" rx="6" ry="6" fill="#ffe6cc" stroke="#ff8000" stroke-width="2"/>
    <text x="340" y="270" text-anchor="middle" dominant-baseline="middle" font-family="Helvetica,Inter,Segoe UI,Arial" font-size="16" font-weight="bold" fill="#ff8000">h2</text>
    <rect x="800" y="460" width="40" height="40" rx="4" ry="4" fill="#ffe6cc" stroke="#ff8000" stroke-width="2"/>
    <text x="820" y="480" text-anchor="middle" dominant-baseline="middle" font-family="Helvetica,Inter,Segoe UI,Arial" font-size="16" font-weight="bold" fill="#ff8000">E</text>
    <rect x="1040" y="280" width="40" height="40" rx="4" ry="4" fill="#ffe6cc" stroke="#ff8000" stroke-width="2"/>
    <text x="1060" y="300" text-anchor="middle" dominant-baseline="middle" font-family="Helvetica,Inter,Segoe UI,Arial" font-size="16" font-weight="bold" fill="#ff8000">S</text>
    <rect x="1040" y="460" width="40" height="40" rx="4" ry="4" fill="#ffe6cc" stroke="#ff8000" stroke-width="2"/>
    <text x="1060" y="480" text-anchor="middle" dominant-baseline="middle" font-family="Helvetica,Inter,Segoe UI,Arial" font-size="16" font-weight="bold" fill="#ff8000">E</text>
    <rect x="1280" y="40" width="40" height="40" rx="4" ry="4" fill="#ffe6cc" stroke="#ff8000" stroke-width="2"/>
    <text x="1300" y="60" text-anchor="middle" dominant-baseline="middle" font-family="Helvetica,Inter,Segoe UI,Arial" font-size="16" font-weight="bold" fill="#ff8000">S</text>
    <rect x="1280" y="340" width="40" height="40" rx="4" ry="4" fill="#ffe6cc" stroke="#ff8000" stroke-width="2"/>
    <text x="1300" y="360" text-anchor="middle" dominant-baseline="middle" font-family="Helvetica,Inter,Segoe UI,Arial" font-size="16" font-weight="bold" fill="#ff8000">E</text>
    <rect x="1520" y="160" width="40" height="40" rx="4" ry="4" fill="#ffe6cc" stroke="#ff8000" stroke-width="2"/>
    <text x="1540" y="180" text-anchor="middle" dominant-baseline="middle" font-family="Helvetica,Inter,Segoe UI,Arial" font-size="16" font-weight="bold" fill="#ff8000">S</text>
    <rect x="1520" y="340" width="40" height="40" rx="4" ry="4" fill="#ffe6cc" stroke="#ff8000" stroke-width="2"/>
    <text x="1540" y="360" text-anchor="middle" dominant-baseline="middle" font-family="Helvetica,Inter,Segoe UI,Arial" font-size="16" font-weight="bold" fill="#ff8000">E</text>
    <rect x="280" y="360" width="120" height="60" rx="6" ry="6" fill="#ffe6cc" stroke="#ff8000" stroke-width="2"/>
    <text x="340" y="390" text-anchor="middle" dominant-baseline="middle" font-family="Helvetica,Inter,Segoe UI,Arial" font-size="16" font-weight="bold" fill="#ff8000">h3</text>
    <rect x="520" y="240" width="120" height="60" rx="6" ry="6" fill="#ffe6cc" stroke="#ff8000" stroke-width="2"/>
    <text x="580" y="270" text-anchor="middle" dominant-baseline="middle" font-family="Helvetica,Inter,Segoe UI,Arial" font-size="16" font-weight="bold" fill="#ff8000">s1</text>
    <rect x="40" y="240" width="120" height="60" rx="6" ry="6" fill="#ffe6cc" stroke="#ff8000" stroke-width="2"/>
    <text x="100" y="270" text-anchor="middle" dominant-baseline="middle" font-family="Helvetica,Inter,Segoe UI,Arial" font-size="16" font-weight="bold" fill="#ff8000">s2</text>
    <rect x="760" y="120" width="120" height="60" rx="6" ry="6" fill="#ffe6cc" stroke="#ff8000" stroke-width="2"/>
    <text x="820" y="150" text-anchor="middle" dominant-baseline="middle" font-family="Helvetica,Inter,Segoe UI,Arial" font-size="16" font-weight="bold" fill="#ff8000">a1</text>
    <rect x="760" y="240" width="120" height="60" rx="6" ry="6" fill="#ffe6cc" stroke="#ff8000" stroke-width="2"/>
    <text x="820" y="270" text-anchor="middle" dominant-baseline="middle" font-family="Helvetica,Inter,Segoe UI,Arial" font-size="16" font-weight="bold" fill="#ff8000">a2</text>
    <rect x="760" y="360" width="120" height="60" rx="6" ry="6" fill="#ffe6cc" stroke="#ff8000" stroke-width="2"/>
    <text x="820" y="390" text-anchor="middle" dominant-baseline="middle" font-family="Helvetica,Inter,Segoe UI,Arial" font-size="16" font-weight="bold" fill="#ff8000">a3</text>
    <rect x="1000" y="360" width="120" height="60" rx="6" ry="6" fill="#ffe6cc" stroke="#ff8000" stroke-width="2"/>
    <text x="1060" y="390" text-anchor="middle" dominant-baseline="middle" font-family="Helvetica,Inter,Segoe UI,Arial" font-size="16" font-weight="bold" fill="#ff8000">b1</text>
  </g>
</svg>
