<?xml version="1.0" encoding="UTF-8"?>
<svg xmlns="http://www.w3.org/2000/svg" width="780" height="820" viewBox="0 0 780 820">
  <defs>
  </defs>
  <g id="container-shells">
  </g>
  <g id="node-shadows">
    <rect x="620" y="270" width="120" height="60" rx="6" ry="6" fill="#000000" stroke="#000000" stroke-width="2" opacity="0.25" transform="translate(2,3)"/>
    <rect x="40" y="540" width="120" height="60" rx="6" ry="6" fill="#000000" stroke="#000000" stroke-width="2" opacity="0.25" transform="translate(2,3)"/>
    <rect x="660" y="40" width="40" height="40" rx="4" ry="4" fill="#000000" stroke="#000000" stroke-width="2" opacity="0.25" transform="translate(2,3)"/>
    <rect x="660" y="740" width="40" height="40" rx="4" ry="4" fill="#000000" stroke="#000000" stroke-width="2" opacity="0.25" transform="translate(2,3)"/>
    <rect x="620" y="440" width="120" height="60" rx="6" ry="6" fill="#000000" stroke="#000000" stroke-width="2" opacity="0.25" transform="translate(2,3)"/>
    <rect x="440" y="120" width="120" height="60" rx="6" ry="6" fill="#000000" stroke="#000000" stroke-width="2" opacity="0.25" transform="translate(2,3)"/>
    <rect x="440" y="220" width="120" height="60" rx="6" ry="6" fill="#000000" stroke="#000000" stroke-width="2" opacity="0.25" transform="translate(2,3)"/>
    <rect x="440" y="320" width="120" height="60" rx="6" ry="6" fill="#000000" stroke="#000000" stroke-width="2" opacity="0.25" transform="translate(2,3)"/>
    <rect x="440" y="440" width="120" height="60" rx="6" ry="6" fill="#000000" stroke="#000000" stroke-width="2" opacity="0.25" transform="translate(2,3)"/>
    <rect x="260" y="320" width="120" height="60" rx="6" ry="6" fill="#000000" stroke="#000000" stroke-width="2" opacity="0.25" transform="translate(2,3)"/>
    <rect x="260" y="540" width="120" height="60" rx="6" ry="6" fill="#000000" stroke="#000000" stroke-width="2" opacity="0.25" transform="translate(2,3)"/>
    <rect x="80" y="640" width="120" height="60" rx="6" ry="6" fill="#000000" stroke="#000000" stroke-width="2" opacity="0.25" transform="translate(2,3)"/>
  </g>
  <g id="edges">
    <g class="edge" data-edge-idx="0" data-edge-base="leadsto" data-edge-from="1" data-edge-to="2">
    <line x1="680.00" y1="335.00" x2="680.00" y2="428.25" stroke="#ff8000" stroke-width="3" />
    <path d="M 680.00 435.00 L 675.50 426.00 L 680.00 428.25 L 684.50 426.00 Z" fill="#ff8000" stroke="#ff8000" stroke-width="3" stroke-miterlimit="10"/>
    </g>
    <g class="edge" data-edge-idx="1" data-edge-base="partof" data-edge-from="3" data-edge-to="4">
    <line x1="500.00" y1="185.00" x2="500.00" y2="208.25" stroke="#82b366" stroke-width="3" />
    <path d="M 500.00 215.00 L 495.50 206.00 L 500.00 208.25 L 504.50 206.00 Z" fill="#82b366" stroke="#82b366" stroke-width="3" stroke-miterlimit="10"/>
    </g>
    <g class="edge" data-edge-idx="2" data-edge-base="partof" data-edge-from="4" data-edge-to="1">
    <line x1="565.00" y1="253.33" x2="609.38" y2="282.92" stroke="#82b366" stroke-width="3" />
    <path d="M 615.00 286.67 L 605.02 285.42 L 609.38 282.92 L 610.01 277.93 Z" fill="#82b366" stroke="#82b366" stroke-width="3" stroke-miterlimit="10"/>
    </g>
    <g class="edge" data-edge-idx="3" data-edge-base="partof" data-edge-from="5" data-edge-to="1">
    <line x1="565.00" y1="346.67" x2="609.38" y2="317.08" stroke="#82b366" stroke-width="3" />
    <path d="M 615.00 313.33 L 610.01 322.07 L 609.38 317.08 L 605.02 314.58 Z" fill="#82b366" stroke="#82b366" stroke-width="3" stroke-miterlimit="10"/>
    </g>
    <g class="edge" data-edge-idx="4" data-edge-base="partof" data-edge-from="6" data-edge-to="2">
    <line x1="565.00" y1="470.00" x2="608.25" y2="470.00" stroke="#82b366" stroke-width="3" />
    <path d="M 615.00 470.00 L 606.00 474.50 L 608.25 470.00 L 606.00 465.50 Z" fill="#82b366" stroke="#82b366" stroke-width="3" stroke-miterlimit="10"/>
    </g>
    <g class="edge" data-edge-idx="5" data-edge-base="nearto" data-edge-from="5" data-edge-to="6">
    <line x1="500.00" y1="385.00" x2="500.00" y2="435.00" stroke="#999999" stroke-width="3" stroke-linecap="round" stroke-dasharray="0 6.250" />
    </g>
    <g class="edge" data-edge-idx="6" data-edge-base="expresses" data-edge-from="1" data-edge-to="7">
    <polyline points="615.00,300.00 300,300 299.59,308.26" fill="none" stroke="#6c8ebf" stroke-width="3" stroke-dasharray="9 6" />
    <path d="M 299.25 315.00 L 295.21 305.79 L 299.59 308.26 L 304.19 306.24 Z" fill="#6c8ebf" stroke="#6c8ebf" stroke-width="3" stroke-miterlimit="10"/>
    </g>
    <g class="edge" data-edge-idx="7" data-edge-base="expresses" data-edge-from="4" data-edge-to="7">
    <line x1="484.47" y1="283.84" x2="360.09" y2="314.55" stroke="#6c8ebf" stroke-width="3" stroke-dasharray="9 6" />
    <path d="M 353.53 316.16 L 361.19 309.64 L 360.09 314.55 L 363.35 318.38 Z" fill="#6c8ebf" stroke="#6c8ebf" stroke-width="3" stroke-miterlimit="10"/>
    </g>
    <g class="edge" data-edge-idx="8" data-edge-base="expresses" data-edge-from="6" data-edge-to="8">
    <line x1="489.09" y1="505.00" x2="391.14" y2="549.90" stroke="#6c8ebf" stroke-width="3" stroke-dasharray="9 6" />
    <path d="M 385.00 552.71 L 391.31 544.87 L 391.14 549.90 L 395.06 553.05 Z" fill="#6c8ebf" stroke="#6c8ebf" stroke-width="3" stroke-miterlimit="10"/>
    </g>
    <g class="edge" data-edge-idx="9" data-edge-base="expresses" data-edge-from="8" data-edge-to="9">
    <line x1="309.09" y1="605.00" x2="211.14" y2="649.90" stroke="#6c8ebf" stroke-width="3" stroke-dasharray="9 6" />
    <path d="M 205.00 652.71 L 211.31 644.87 L 211.14 649.90 L 215.06 653.05 Z" fill="#6c8ebf" stroke="#6c8ebf" stroke-width="3" stroke-miterlimit="10"/>
    </g>
    <g class="edge" data-edge-idx="10" data-edge-base="nearto" data-edge-from="10" data-edge-to="8">
    <line x1="165.00" y1="570.00" x2="255.00" y2="570.00" stroke="#999999" stroke-width="3" stroke-linecap="round" stroke-dasharray="0 6.000" />
    </g>
    <g class="edge" data-edge-idx="11" data-edge-base="leadsto" data-edge-from="11" data-edge-to="1">
    <line x1="680.00" y1="85.00" x2="680.00" y2="258.25" stroke="#ff8000" stroke-width="3" />
    <path d="M 680.00 265.00 L 675.50 256.00 L 680.00 258.25 L 684.50 256.00 Z" fill="#ff8000" stroke="#ff8000" stroke-width="3" stroke-miterlimit="10"/>
    </g>
    <g class="edge" data-edge-idx="12" data-edge-base="leadsto" data-edge-from="2" data-edge-to="12">
    <line x1="680.00" y1="505.00" x2="680.00" y2="728.25" stroke="#ff8000" stroke-width="3" />
    <path d="M 680.00 735.00 L 675.50 726.00 L 680.00 728.25 L 684.50 726.00 Z" fill="#ff8000" stroke="#ff8000" stroke-width="3" stroke-miterlimit="10"/>
    </g>
  </g>
  <g id="nodes">
    <rect x="620" y="270" width="120" height="60" rx="6" ry="6" fill="#ffe6cc" stroke="#ff8000" stroke-width="2"/>
    <text x="680" y="300" text-anchor="middle" dominant-baseline="middle" font-family="Helvetica,Inter,Segoe UI,Arial" font-size="16" font-weight="bold" fill="#ff8000">e1</text>
    <rect x="40" y="540" width="120" height="60" rx="6" ry="6" fill="#dae8fc" stroke="#6c8ebf" stroke-width="2"/>
    <text x="100" y="570" text-anchor="middle" dominant-baseline="middle" font-family="Helvetica,Inter,Segoe UI,Arial" font-size="16" font-weight="normal" fill="#3399ff">c-Z</text>
    <rect x="660" y="40" width="40" height="40" rx="4" ry="4" fill="#ffe6cc" stroke="#ff8000" stroke-width="2"/>
    <text x="680" y="60" text-anchor="middle" dominant-baseline="middle" font-family="Helvetica,Inter,Segoe UI,Arial" font-size="16" font-weight="bold" fill="#ff8000">S</text>
    <rect x="660" y="740" width="40" height="40" rx="4" ry="4" fill="#ffe6cc" stroke="#ff8000" stroke-width="2"/>
    <text x="680" y="760" text-anchor="middle" dominant-baseline="middle" font-family="Helvetica,Inter,Segoe UI,Arial" font-size="16" font-weight="bold" fill="#ff8000">E</text>
    <rect x="620" y="440" width="120" height="60" rx="6" ry="6" fill="#ffe6cc" stroke="#ff8000" stroke-width="2"/>
    <text x="680" y="460" text-anchor="middle" dominant-baseline="middle" font-family="Helvetica,Inter,Segoe UI,Arial" font-size="16" font-weight="bold" fill="#ff8000">Spacetime</text>
    <text x="680" y="480" text-anchor="middle" dominant-baseline="middle" font-family="Helvetica,Inter,Segoe UI,Arial" font-size="16" font-weight="bold" fill="#ff8000">Event 2.</text>
    <rect x="440" y="120" width="120" height="60" rx="6" ry="6" fill="#d5e8d4" stroke="#82b366" stroke-width="2"/>
    <text x="500" y="150" text-anchor="middle" dominant-baseline="middle" font-family="Helvetica,Inter,Segoe UI,Arial" font-size="16" font-weight="normal" fill="#009900">tA</text>
    <rect x="440" y="220" width="120" height="60" rx="6" ry="6" fill="#d5e8d4" stroke="#82b366" stroke-width="2"/>
    <text x="500" y="240" text-anchor="middle" dominant-baseline="middle" font-family="Helvetica,Inter,Segoe UI,Arial" font-size="16" font-weight="normal" fill="#009900">Thing A part</text>
    <text x="500" y="260" text-anchor="middle" dominant-baseline="middle" font-family="Helvetica,Inter,Segoe UI,Arial" font-size="16" font-weight="normal" fill="#009900">1.</text>
    <rect x="440" y="320" width="120" height="60" rx="6" ry="6" fill="#d5e8d4" stroke="#82b366" stroke-width="2"/>
    <text x="500" y="350" text-anchor="middle" dominant-baseline="middle" font-family="Helvetica,Inter,Segoe UI,Arial" font-size="16" font-weight="normal" fill="#009900">tB</text>
    <rect x="440" y="440" width="120" height="60" rx="6" ry="6" fill="#d5e8d4" stroke="#82b366" stroke-width="2"/>
    <text x="500" y="470" text-anchor="middle" dominant-baseline="middle" font-family="Helvetica,Inter,Segoe UI,Arial" font-size="16" font-weight="normal" fill="#009900">tC</text>
    <rect x="260" y="320" width="120" height="60" rx="6" ry="6" fill="#dae8fc" stroke="#6c8ebf" stroke-width="2"/>
    <text x="320" y="350" text-anchor="middle" dominant-baseline="middle" font-family="Helvetica,Inter,Segoe UI,Arial" font-size="16" font-weight="normal" fill="#3399ff">c-V</text>
    <rect x="260" y="540" width="120" height="60" rx="6" ry="6" fill="#dae8fc" stroke="#6c8ebf" stroke-width="2"/>
    <text x="320" y="570" text-anchor="middle" dominant-baseline="middle" font-family="Helvetica,Inter,Segoe UI,Arial" font-size="16" font-weight="normal" fill="#3399ff">c-X</text>
    <rect x="80" y="640" width="120" height="60" rx="6" ry="6" fill="#dae8fc" stroke="#6c8ebf" stroke-width="2"/>
    <text x="140" y="670" text-anchor="middle" dominant-baseline="middle" font-family="Helvetica,Inter,Segoe UI,Arial" font-size="16" font-weight="normal" fill="#3399ff">c-Y</text>
  </g>
</svg>
